<?xml version="1.0" encoding="UTF-8" standalone="no"?>
<svg
   xmlns:dc="http://purl.org/dc/elements/1.1/"
   xmlns:cc="http://creativecommons.org/ns#"
   xmlns:rdf="http://www.w3.org/1999/02/22-rdf-syntax-ns#"
   xmlns:svg="http://www.w3.org/2000/svg"
   xmlns="http://www.w3.org/2000/svg"
   xmlns:sodipodi="http://sodipodi.sourceforge.net/DTD/sodipodi-0.dtd"
   xmlns:inkscape="http://www.inkscape.org/namespaces/inkscape"
   width="1508.8975"
   height="334.77112"
   viewBox="0 0 1508.8975 334.77112"
   version="1.1"
   xml:space="preserve"
   style="clip-rule:evenodd;fill-rule:evenodd;stroke-linejoin:round;stroke-miterlimit:2"
   id="svg24"
   sodipodi:docname="QuickVega.svg"
   inkscape:version="1.0.1 (3bc2e813f5, 2020-09-07)"><metadata
   id="metadata30"><rdf:RDF><cc:Work
       rdf:about=""><dc:format>image/svg+xml</dc:format><dc:type
         rdf:resource="http://purl.org/dc/dcmitype/StillImage" /><dc:title></dc:title></cc:Work></rdf:RDF></metadata><defs
   id="defs28" /><sodipodi:namedview
   pagecolor="#ffffff"
   bordercolor="#666666"
   borderopacity="1"
   objecttolerance="10"
   gridtolerance="10"
   guidetolerance="10"
   inkscape:pageopacity="0"
   inkscape:pageshadow="2"
   inkscape:window-width="1920"
   inkscape:window-height="1016"
   id="namedview26"
   showgrid="false"
   fit-margin-top="0"
   fit-margin-left="0"
   fit-margin-right="0"
   fit-margin-bottom="0"
   inkscape:zoom="0.39682685"
   inkscape:cx="829.46953"
   inkscape:cy="261.56856"
   inkscape:window-x="0"
   inkscape:window-y="27"
   inkscape:window-maximized="1"
   inkscape:current-layer="text4"
   inkscape:document-rotation="0" />
    <g
   transform="translate(-465.57462,-232.35072)"
   id="g6"
   inkscape:export-xdpi="88.689926"
   inkscape:export-ydpi="88.689926">
        <g
   aria-label="QuickVega"
   id="text4"
   style="font-weight:700;font-size:220.971px;font-family:Roboto-Bold, Roboto;stroke:#ffffff;stroke-width:1px"><path
     d="m 1051.459,501.51455 -20.5002,18.23442 -33.33989,-26.8661 q -5.82639,0.97106 -12.08435,0.97106 -29.56351,0 -48.33741,-20.60813 -18.7739,-20.60813 -18.7739,-56.5375 v -7.01324 q 0,-35.92937 18.66601,-56.5375 18.666,-20.71603 48.2295,-20.71603 29.67144,0 48.33744,20.71603 18.666,20.60813 18.666,56.5375 v 7.01324 q 0,21.79499 -7.1212,38.19518 -7.1211,16.40019 -19.637,26.11083 z m -31.9372,-92.03528 q 0,-24.60029 -8.9554,-37.43991 -8.9553,-12.83962 -25.24764,-12.83962 -16.18439,0 -25.13976,12.73172 -8.84747,12.62383 -8.95537,37.00833 v 7.76851 q 0,24.49239 8.95537,37.5478 9.06326,12.94752 25.35556,12.94752 16.29234,0 25.03184,-12.83962 8.8475,-12.83962 8.9554,-37.11622 z"
     style="font-weight:700;font-size:220.971px;font-family:Roboto-Bold, Roboto;stroke:none;stroke-width:1px"
     id="path840" /><path
     d="m 1144.789,491.69601 -0.8631,-11.97645 q -11.437,14.13437 -31.9372,14.13437 -17.1555,0 -27.9451,-10.03432 -10.6817,-10.03433 -10.7896,-32.90828 v -75.95878 h 31.1819 v 75.74299 q 0,9.71064 4.6396,13.81068 4.6395,3.99216 11.8685,3.99216 15.8607,0 21.9029,-11.11329 v -82.43254 h 31.2898 v 116.74346 z"
     style="font-weight:700;font-size:220.971px;font-family:Roboto-Bold, Roboto;stroke:none;stroke-width:1px"
     id="path842" /><path
     d="m 1197.4423,344.74167 q 0,-7.01324 4.7474,-11.54487 4.7474,-4.63953 12.7317,-4.63953 7.9843,0 12.7318,4.63953 4.7474,4.53163 4.7474,11.54487 0,6.90535 -4.7474,11.54487 -4.7475,4.53164 -12.7318,4.53164 -7.9843,0 -12.7317,-4.53164 -4.7474,-4.63952 -4.7474,-11.54487 z m 33.2319,30.21088 v 116.74346 h -31.2898 V 374.95255 Z"
     style="font-weight:700;font-size:220.971px;font-family:Roboto-Bold, Roboto;stroke:none;stroke-width:1px"
     id="path844" /><path
     d="m 1304.7988,468.71417 q 8.5238,0 14.0265,-4.63953 5.5027,-4.74742 5.6106,-12.73173 h 29.3477 q -0.2158,18.55811 -14.2423,30.53457 -13.9186,11.97645 -34.203,11.97645 -27.0819,0 -40.5689,-17.04756 -13.3791,-17.15547 -13.3791,-41.97154 v -3.02109 q 0,-24.70818 13.3791,-41.86365 13.3791,-17.15546 40.461,-17.15546 21.4713,0 34.8504,12.30014 13.487,12.30015 13.7028,33.33987 h -29.3477 q -0.1079,-8.52379 -5.1791,-14.45807 -5.0711,-6.04217 -14.5659,-6.04217 -13.5949,0 -17.8028,10.25012 -4.208,10.14222 -4.208,26.65031 0,13.487 4.1001,23.73711 4.2079,10.14223 18.0186,10.14223 z"
     style="font-weight:700;font-size:220.971px;font-family:Roboto-Bold, Roboto;stroke:none;stroke-width:1px"
     id="path846" /><path
     d="m 1443.9846,491.69601 -29.9951,-46.82686 -11.1133,11.11329 v 35.71357 h -31.1819 V 325.85987 h 31.1819 v 91.81949 l 6.0422,-7.76851 29.7793,-34.9583 h 37.4399 l -42.0794,48.5532 45.8558,68.19026 z"
     style="font-weight:700;font-size:220.971px;font-family:Roboto-Bold, Roboto;stroke:none;stroke-width:1px"
     id="path848" /><path
     d="m 1621.4736,334.59945 -54.8112,157.09656 h -33.6636 l -54.4874,-157.09656 h 35.8214 l 35.4978,118.03822 35.6057,-118.03822 z"
     style="font-weight:700;font-size:220.971px;font-family:Roboto-Bold, Roboto;stroke:none;stroke-width:1px"
     id="path850" /><path
     d="m 1728.5087,472.70632 q -5.6106,7.9843 -17.0476,14.56596 -11.4369,6.58165 -28.4845,6.58165 -27.1898,0 -42.511,-16.40019 -15.3213,-16.50808 -15.4292,-39.81362 v -4.53163 q 0,-26.43452 14.6739,-43.37419 14.7817,-16.93967 39.8136,-16.93967 25.1398,0 38.3031,15.75282 13.1633,15.75281 13.1633,41.64785 v 13.27121 H 1656.65 q 1.6184,11.32907 8.9553,18.34231 7.337,6.90535 19.3134,6.90535 17.8029,0 28.1609,-13.05542 z m -49.2006,-74.77192 q -9.9264,0 -15.3212,6.68955 -5.3948,6.68955 -7.0132,17.47915 h 43.3741 v -2.37371 q -0.2157,-9.38695 -5.2869,-15.53703 -4.9632,-6.25796 -15.7528,-6.25796 z"
     id="path852"
     style="stroke:none" /><path
     d="m 1794.6489,537.65971 q -10.5738,0 -23.3055,-4.42374 -12.6238,-4.42373 -20.1765,-13.81069 l 13.8106,-18.98969 q 11.5449,12.94752 28.3767,12.94752 12.408,0 19.3134,-6.68955 6.9053,-6.58166 6.9053,-18.8818 v -6.25797 q -11.0054,12.30014 -28.3766,12.30014 -21.6871,0 -34.311,-16.61598 -12.6238,-16.61598 -12.8396,-41.64785 v -3.12899 q 0,-26.65031 12.6239,-43.15839 12.7317,-16.50809 34.7425,-16.50809 19.3133,0 29.995,13.16331 l 1.1869,-11.00539 h 28.2688 v 112.75131 q 0,24.06081 -15.645,37.00833 -15.537,12.94752 -40.5689,12.94752 z m -19.4212,-102.93278 q 0,14.02648 5.7185,23.95291 5.8263,9.81854 18.1265,9.81854 14.2422,0 20.5002,-10.7896 V 408.724 q -6.1501,-10.68171 -20.2844,-10.68171 -12.1923,0 -18.1266,10.03433 -5.9342,9.92643 -5.9342,24.38449 z"
     style="font-weight:700;font-size:220.971px;font-family:Roboto-Bold, Roboto;stroke:none;stroke-width:1px"
     id="path854" /><path
     d="m 1942.4664,491.69601 q -1.9421,-4.10004 -3.1289,-10.46591 -11.3291,12.62383 -29.4556,12.62383 -16.7239,0 -28.1609,-9.81853 -11.437,-9.92643 -11.437,-25.13977 0,-18.34232 13.5949,-28.37664 13.5949,-10.14223 40.2452,-10.14223 h 13.9186 v -6.79744 q 0,-8.0922 -4.2079,-12.83963 -4.1001,-4.85532 -13.0554,-4.85532 -16.7239,0 -16.7239,14.02648 h -31.182 q 0,-15.21333 13.487,-26.11083 13.487,-11.00539 36.1452,-11.00539 20.1765,0 33.4477,10.25012 13.3791,10.25012 13.3791,30.75036 v 52.00587 q 0.2158,15.53702 4.6396,24.0608 v 1.83423 z m -25.7871,-21.68709 q 7.8764,0 13.3791,-3.45267 5.6106,-3.56057 7.9843,-7.76851 v -20.28445 h -12.7317 q -12.4081,0 -18.1265,5.2869 -5.7185,5.17901 -5.7185,12.83963 0,5.82638 3.9921,9.60274 4.1001,3.77636 11.2212,3.77636 z"
     style="font-weight:700;font-size:220.971px;font-family:Roboto-Bold, Roboto;stroke:none;stroke-width:1px"
     id="path856" /></g>
    </g>
    <g
   transform="matrix(0.650563,0,0,0.361974,-150.30422,-225.05572)"
   id="g10"
   inkscape:export-xdpi="88.689926"
   inkscape:export-ydpi="88.689926">
        <rect
   x="337.375"
   y="942.44598"
   width="109.23"
   height="453.367"
   style="fill:#ca3c32"
   id="rect8" />
    </g>
    <g
   transform="matrix(0.650563,0,0,0.28168,-62.838625,-112.98072)"
   id="g14"
   inkscape:export-xdpi="88.689926"
   inkscape:export-ydpi="88.689926">
        <rect
   x="337.375"
   y="942.44598"
   width="109.23"
   height="453.367"
   style="fill:#399746"
   id="rect12" />
    </g>
    <g
   transform="matrix(0.650563,0,0,0.618026,28.386375,-582.45612)"
   id="g18"
   inkscape:export-xdpi="88.689926"
   inkscape:export-ydpi="88.689926">
        <rect
   x="337.375"
   y="942.44598"
   width="109.23"
   height="453.367"
   style="fill:#9259a3"
   id="rect16" />
    </g>
    <g
   transform="matrix(0.683793,0,0,0.449308,-193.12502,-140.30972)"
   id="g22"
   inkscape:export-xdpi="88.689926"
   inkscape:export-ydpi="88.689926">
        <path
   d="m 282.432,1047.69 c 18.748,-37.05 69.594,-28.45 137.285,-14.4 29.768,6.18 62.188,13.84 96.485,18.89 21.424,3.15 43.458,5.48 65.587,5.15 33.631,-0.5 67.221,-5.67 99.523,-14.58 64.62,-17.82 121.995,-50.964 163.206,-106.863 -44.94,35.124 -100.118,41.007 -159.947,40.141 -35.56,-0.515 -72.045,-5.751 -108.575,-7.892 -31.37,-1.839 -62.442,-1.234 -92.016,-0.201 -34.16,1.193 -65.795,4.815 -93.954,10.253 -56.895,10.987 -97.122,30.012 -107.594,69.502 z"
   id="path20" />
    </g>
</svg>
